<svg xmlns="http://www.w3.org/2000/svg" version="1.1" xmlns:xlink="http://www.w3.org/1999/xlink" width="512" height="512" x="0" y="0" viewBox="0 0 512.046 512.046" style="enable-background:new 0 0 512 512" xml:space="preserve"><g><path d="M309.247 15c-85.19 5.415-154.83 89.578-168.549 198.872-.773 6.165-3.955 11.157-9.219 14.456-5.264 3.299-11.141 3.991-17.026 2.002-31.741-10.729-58.852-40.158-67.498-73.558C-10.425 348 84.125 493.907 249.844 497c169.784 3.169 318.731-156 172.883-367.882-5.947 16.226-13.693 30.525-22.768 42.677-7.803 10.449-23.024 10.735-31.3.943-33.123-39.19-55.397-94.584-59.412-157.738z" style="fill-rule: evenodd; clip-rule: evenodd; stroke-linecap: round; stroke-linejoin: round; stroke-miterlimit: 22.9256;" fill-rule="evenodd" clip-rule="evenodd" fill="none" stroke="#000000" stroke-width="29.9999px" stroke-linecap="round" stroke-linejoin="round" stroke-miterlimit="22.9256" data-original="#000000"></path><path d="M351.336 320v63.117M251.796 319.07a34.79 34.79 0 0 0-19.541-5.969c-19.302 0-34.949 15.647-34.949 34.949s15.647 34.949 34.949 34.949c7.839 0 14.288-2.581 19.182-6.939a28.123 28.123 0 0 0 2.836-2.927M391.273 279v104.229M351.336 351.559c0 17.277-14.005 31.282-31.282 31.282s-31.282-14.005-31.282-31.282 14.005-31.282 31.282-31.282 31.282 14.005 31.282 31.282M160.881 313.701l-36.037 29.452 39.868 40.347M120.773 280.478v102.723" style="fill-rule: evenodd; clip-rule: evenodd; stroke-linecap: round; stroke-linejoin: round; stroke-miterlimit: 10;" fill-rule="evenodd" clip-rule="evenodd" fill="none" stroke="#000000" stroke-width="29.9999px" stroke-linecap="round" stroke-linejoin="round" stroke-miterlimit="10" data-original="#000000"></path></g></svg>