<svg xmlns="http://www.w3.org/2000/svg" version="1.1" xmlns:xlink="http://www.w3.org/1999/xlink" width="512" height="512" x="0" y="0" viewBox="0 0 16.933 16.933" style="enable-background:new 0 0 512 512" xml:space="preserve"><g><path d="M1.19 0a.267.267 0 0 0-.254.193C.814.628.525.949.178 1.072a.265.265 0 0 0 0 .5c.346.123.636.446.757.88a.262.262 0 0 0 .254.194h.004a.263.263 0 0 0 .254-.193c.12-.435.41-.758.757-.881a.265.265 0 0 0 0-.5c-.347-.123-.637-.444-.759-.88A.267.267 0 0 0 1.191 0zm14.553 0a.267.267 0 0 0-.255.193c-.122.435-.412.757-.758.88a.265.265 0 0 0 0 .5c.346.122.636.445.757.88a.262.262 0 0 0 .253.193h.005a.263.263 0 0 0 .253-.193c.122-.435.41-.758.757-.88a.265.265 0 0 0 0-.5c-.346-.123-.636-.445-.758-.88a.267.267 0 0 0-.254-.192zM1.19.9c.101.16.252.32.384.422a1.77 1.77 0 0 0-.384.424 1.77 1.77 0 0 0-.385-.424c.132-.103.283-.262.385-.421zm14.936.422a1.77 1.77 0 0 0-.384.424 1.77 1.77 0 0 0-.385-.424c.132-.102.283-.262.385-.42.1.158.252.318.384.42zM7.408 16.141c0 .435.351.792.794.792h.53a.792.792 0 0 0 .793-.792v-.266a.792.792 0 0 0 .794-.793v-.265c.353 0 .353-.53 0-.53v-.529c.306 0 .345-.397.12-.502.013-.123.06-.251.135-.39.746.445 1.44.76 2.023.893.454.105.84.106 1.155-.033.337-.148.525-.434.587-.783.115-.657-.198-1.624-.886-2.802-.176-.312-.642-.04-.457.267.66 1.128.904 1.972.82 2.444-.032.183-.117.32-.277.391-.16.07-.434.09-.822.001-.518-.119-1.148-.401-1.84-.811.182-.23.397-.477.629-.761.58-.71 1.193-1.617 1.193-2.97 0-.482-.076-.941-.214-1.372a17.162 17.162 0 0 0 1.519-2.216c.621-1.104.938-2.075.766-2.738a.987.987 0 0 0-.684-.725 1.567 1.567 0 0 0-.542-.06 2.978 2.978 0 0 0-.624.106c-.888.237-2.011.847-3.288 1.795-.283.21.032.635.316.425 1.243-.923 2.336-1.504 3.108-1.71.387-.104.687-.109.873-.051a.456.456 0 0 1 .329.35c.117.438-.108 1.269-.716 2.35-.33.585-.765 1.231-1.284 1.904-.66-1.343-2.016-2.261-3.79-2.262-1.776 0-3.133.92-3.791 2.263-.52-.673-.956-1.32-1.286-1.906-.608-1.08-.833-1.912-.716-2.349a.456.456 0 0 1 .329-.35c.186-.058.487-.054.873.05.772.206 1.865.787 3.109 1.71.283.21.598-.215.315-.425-1.276-.947-2.4-1.558-3.287-1.795a3.003 3.003 0 0 0-.625-.106 1.569 1.569 0 0 0-.542.06.987.987 0 0 0-.684.725c-.172.663.145 1.634.767 2.739.387.688.9 1.439 1.52 2.217-.138.43-.215.89-.215 1.37 0 1.354.614 2.26 1.194 2.97.232.284.446.531.629.761-.693.41-1.324.693-1.842.812-.388.09-.661.07-.821 0-.16-.071-.246-.21-.278-.392-.083-.472.161-1.316.82-2.444.185-.307-.281-.579-.457-.267-.688 1.178-1 2.145-.885 2.802.061.349.25.635.587.783.315.139.7.138 1.154.033.585-.134 1.278-.448 2.025-.893.076.138.12.267.134.389-.226.105-.187.503.12.503v.53c-.353 0-.353.529 0 .529v.265c0 .435.35.793.793.793zM8.467 2.91c-.133 0-.265.088-.265.265v.529c0 .353.53.353.53 0v-.53c0-.176-.133-.264-.265-.264zM4.35 4.99l.374.375c.25.249.623-.126.374-.375l-.374-.374a.257.257 0 0 0-.2-.082c-.198.011-.361.269-.174.456zm7.857-.374-.374.374c-.25.25.124.624.374.375l.375-.375c.187-.187.023-.445-.176-.456a.255.255 0 0 0-.199.082zm-.32 2.61c-.318.39-.66.786-1.028 1.184a26.385 26.385 0 0 1-2.394 2.28 26.511 26.511 0 0 1-2.393-2.28 24.895 24.895 0 0 1-1.026-1.183c.53-1.3 1.772-2.198 3.42-2.199 1.647 0 2.89.899 3.42 2.198zM1.32 5.556a.265.265 0 0 0-.254.194c-.141.498-.48.87-.89 1.013a.265.265 0 0 0 0 .499c.41.142.75.516.892 1.013.074.254.433.254.508 0 .14-.497.48-.87.89-1.013a.265.265 0 0 0 0-.5c-.41-.143-.749-.515-.89-1.012a.264.264 0 0 0-.256-.193zm14.288 0a.265.265 0 0 0-.254.194c-.14.498-.48.87-.89 1.013a.265.265 0 0 0 0 .499c.41.142.75.516.892 1.013.074.254.434.254.508 0 .14-.497.48-.87.89-1.013a.265.265 0 0 0 0-.5c-.41-.143-.749-.515-.89-1.012a.264.264 0 0 0-.256-.193zm-7.141.001c-.65 0-1.285.198-1.818.57-.3.202.012.648.304.436.444-.31.972-.477 1.514-.477.36.008.36-.536 0-.529zm-7.147.91c.162.25.272.364.499.544-.195.158-.338.29-.497.546a1.914 1.914 0 0 0-.5-.545c.184-.14.36-.309.498-.546zm14.288 0c.163.25.272.364.499.544-.195.158-.337.29-.497.546a1.914 1.914 0 0 0-.5-.545c.184-.14.36-.309.498-.546zm-9.523.413a.265.265 0 1 0 0 .529.265.265 0 0 0 0-.53zM12.172 8.7c0 1.158-.523 1.959-1.077 2.637-.233.285-.47.548-.675.811a18.89 18.89 0 0 1-1.54-1.118 27.067 27.067 0 0 0 3.194-3.199c.062.279.098.569.098.87zM4.86 7.833a27.151 27.151 0 0 0 3.191 3.199 19.01 19.01 0 0 1-1.537 1.117c-.205-.263-.442-.526-.675-.811-.554-.678-1.076-1.48-1.076-2.637 0-.3.035-.59.097-.868zm-1.95.634c-.352 0-.352.529 0 .529h.53c.353 0 .353-.529 0-.529zm10.583 0c-.353 0-.353.529 0 .529h.53c.353 0 .353-.529 0-.529zm-5.026 2.909c.562.454 1.12.862 1.656 1.21a1.56 1.56 0 0 0-.215.643H7.026c-.018-.23-.1-.442-.215-.644a19.74 19.74 0 0 0 1.656-1.21zm4.203.998c.278.218.605-.198.328-.416l-.416-.327a.257.257 0 0 0-.208-.058c-.196.035-.328.31-.12.474zm-8.317-.741-.416.327c-.277.219.05.635.327.416l.416-.327c.208-.164.077-.439-.12-.474a.255.255 0 0 0-.207.058zm-2.5 1.069a.264.264 0 0 0-.256.193c-.223.818-.763 1.436-1.422 1.674a.265.265 0 0 0 0 .499c.659.237 1.2.854 1.424 1.671.072.259.438.259.51 0 .223-.817.763-1.435 1.422-1.673a.265.265 0 0 0 0-.499c-.659-.238-1.2-.855-1.424-1.672a.265.265 0 0 0-.254-.193zm13.227 0a.264.264 0 0 0-.256.193c-.223.818-.763 1.436-1.421 1.674a.265.265 0 0 0 0 .499c.658.237 1.2.854 1.423 1.671.072.259.438.259.51 0 .223-.817.764-1.435 1.422-1.673a.265.265 0 0 0 0-.499c-.659-.238-1.2-.855-1.424-1.672a.265.265 0 0 0-.254-.193zm-13.227.972c.26.53.563.868 1.006 1.143-.458.293-.746.639-1.006 1.138-.235-.479-.597-.908-1.004-1.136.459-.302.747-.634 1.004-1.145zm13.227 0c.26.53.563.868 1.006 1.143-.457.293-.746.639-1.006 1.138-.235-.479-.596-.908-1.004-1.136.459-.302.747-.634 1.004-1.145zm-7.936.084H9.79v.53H7.144zm0 1.059H9.79v.265a.262.262 0 0 1-.265.264H7.408a.262.262 0 0 1-.264-.264zm.793 1.058h1.059v.265a.262.262 0 0 1-.264.264h-.53a.262.262 0 0 1-.265-.264z" fill="#000000" opacity="1" data-original="#000000"></path></g></svg>