<svg xmlns="http://www.w3.org/2000/svg" version="1.1" xmlns:xlink="http://www.w3.org/1999/xlink" width="512" height="512" x="0" y="0" viewBox="0 0 64 64" style="enable-background:new 0 0 512 512" xml:space="preserve"><g><path d="M26.05 21.94c.67.21 1.32.47 1.96.75C28.18 14.01 35.28 7 43.99 7s16 7.18 16 16c0 3.72-1.3 7.34-3.67 10.2-.28.33-.31.81-.07 1.17l2.62 4.13-6.66-1.48c-.23-.05-.48-.02-.69.09-2.3 1.23-4.9 1.88-7.52 1.88-1.45 0-2.85-.21-4.18-.57.09.69.14 1.39.16 2.1 1.3.3 2.64.47 4.02.47 2.82 0 5.62-.67 8.13-1.94l8.66 1.92c.07.02.14.02.22.02.32 0 .63-.16.82-.43.23-.33.24-.77.03-1.11l-3.52-5.56c2.38-3.12 3.68-6.96 3.68-10.9 0-9.93-8.07-18-18-18S26.63 12.5 26.07 21.93z" fill="#000000" opacity="1" data-original="#000000"></path><path d="M36 16h16v2H36zM36 22h16v2H36zM40 28h12v2H40zM15.69 37h-.46l-1.05 4h2.57z" fill="#000000" opacity="1" data-original="#000000"></path><path d="M11.54 56.89C14.06 58.24 16.94 59 20 59c9.94 0 18-8.06 18-18s-8.06-18-18-18S2 31.06 2 41c0 4.36 1.55 8.36 4.13 11.47L2 59zM22.46 45h2.5v-8h-2.5v-2h7v2h-2.5v8h2.5v2h-7zm-8.97-9.25c.12-.44.51-.75.97-.75h2c.45 0 .85.31.97.75L20.39 47h-2.07l-1.05-4h-3.62l-1.05 4h-2.07z" fill="#000000" opacity="1" data-original="#000000"></path></g></svg>