<svg xmlns="http://www.w3.org/2000/svg" version="1.1" xmlns:xlink="http://www.w3.org/1999/xlink" width="512" height="512" x="0" y="0" viewBox="0 0 512 512" style="enable-background:new 0 0 512 512" xml:space="preserve"><g><path d="m419.95 416.637-22.643-22.644a191.822 191.822 0 0 0-.074-259.913l22.7-22.7a223.981 223.981 0 0 1 .012 305.261zm-11.325-316.575-22.706 22.7a191.626 191.626 0 0 0-259.839 0l-22.7-22.7a223.951 223.951 0 0 1 305.25 0zM92.062 111.376l22.7 22.7a191.822 191.822 0 0 0-.073 259.912L92.05 416.637a223.981 223.981 0 0 1 .012-305.261zM256 232a32 32 0 1 1-32 32 32.036 32.036 0 0 1 32-32z" fill="#000000" opacity="1" data-original="#000000"></path><path d="M376 472H136v-32h240zm-152.41-74.53-16-48a8 8 0 0 0-4.618-4.9 115.99 115.99 0 0 1-57.4-49.947 72.762 72.762 0 0 1-9.572-36.04v-24.694L148.944 208H168v11.056l-11.578 5.789a8 8 0 0 0-4.183 9.095l8 32a8 8 0 0 0 5.821 5.821 63.638 63.638 0 0 1 41.536 33.32l1.249 2.5a8 8 0 0 0 8.723 4.267l.81-.162a190.864 190.864 0 0 1 75.245 0l.809.162a8 8 0 0 0 8.723-4.267l1.249-2.5a63.64 63.64 0 0 1 41.536-33.319 8 8 0 0 0 5.821-5.821l8-32a8 8 0 0 0-4.183-9.095L344 219.056V208h19.056L376 233.889v24.694a72.759 72.759 0 0 1-9.572 36.043 115.982 115.982 0 0 1-57.4 49.946 8 8 0 0 0-4.618 4.9l-16 48a8.01 8.01 0 0 0-.171 4.47L293.754 424h-75.508l5.515-22.06a8.01 8.01 0 0 0-.171-4.47z" fill="#000000" opacity="1" data-original="#000000"></path></g></svg>