<svg xmlns="http://www.w3.org/2000/svg" version="1.1" xmlns:xlink="http://www.w3.org/1999/xlink" width="512" height="512" x="0" y="0" viewBox="0 0 512 512" style="enable-background:new 0 0 512 512" xml:space="preserve"><g><path fill-rule="evenodd" d="M167.28 415.41c0 6.52 1.84 12.64 5.02 17.83H80.93v-73.73c0-4.56-3.69-8.25-8.25-8.25s-8.28 3.69-8.28 8.25v73.73H24.1c-13.24 0-24.1-10.83-24.1-24.1v-68.83c0-51.14 41.84-92.95 92.95-92.95h50.46c30.93 0 58.45 15.31 75.37 38.72-30.25 13.18-51.51 43.37-51.51 78.32v51.01zm263.84-143.95h-43.91c-20.27 0-38.83 7.54-53.06 19.96 24.66 15 41.22 42.15 41.22 72.99v51c0 6.52-1.84 12.64-5.02 17.83h70.16v-64.15c0-4.56 3.69-8.28 8.25-8.28s8.28 3.71 8.28 8.28v64.15h34.02c11.51 0 20.95-9.44 20.95-20.98v-59.9c-.01-44.5-36.41-80.9-80.89-80.9zm-312.94-57.82c37.25 0 67.44-30.19 67.44-67.44s-30.19-67.44-67.44-67.44-67.44 30.19-67.44 67.44 30.19 67.44 67.44 67.44zm290.98 28.48c32.43 0 58.71-26.28 58.71-58.71s-26.28-58.71-58.71-58.71c-32.4 0-58.68 26.28-58.68 58.71s26.28 58.71 58.68 58.71zm-119.14 53.44h-37.36c-37.87 0-68.85 30.98-68.85 68.85v51c0 9.81 8.02 17.83 17.86 17.83h27.72v-54.6c0-4.56 3.69-8.28 8.25-8.28s8.25 3.71 8.25 8.28v54.6h50.88v-54.6c0-4.56 3.71-8.28 8.28-8.28 4.54 0 8.25 3.71 8.25 8.28v54.6h27.72c9.81 0 17.83-8.02 17.83-17.83v-51c-.01-37.87-30.96-68.85-68.83-68.85zm-18.68-24.98c27.58 0 49.95-22.37 49.95-49.95s-22.37-49.95-49.95-49.95-49.95 22.37-49.95 49.95 22.36 49.95 49.95 49.95z" clip-rule="evenodd" fill="#000000" opacity="1" data-original="#000000"></path></g></svg>