<svg xmlns="http://www.w3.org/2000/svg" version="1.1" xmlns:xlink="http://www.w3.org/1999/xlink" width="512" height="512" x="0" y="0" viewBox="0 0 64 64" style="enable-background:new 0 0 512 512" xml:space="preserve" class=""><g><path d="M38.7 19.19a18.35 18.35 0 0 1 1.57 1.49l.55.63L42.36 20c-.21-.24-.41-.48-.63-.71A18.44 18.44 0 0 0 40 17.65a.92.92 0 0 1-.25-1.07 2.83 2.83 0 0 0 .25-1.12 2.87 2.87 0 0 0-1.8-2.68l-3.73-1.55a2.89 2.89 0 0 0-3.8 1.56.9.9 0 0 1-.95.59 20.82 20.82 0 0 0-3.35 0 .91.91 0 0 1-.93-.58 2.89 2.89 0 0 0-2.73-1.8 2.84 2.84 0 0 0-1.12.23l-3.74 1.54a2.9 2.9 0 0 0-1.58 1.57 2.92 2.92 0 0 0 0 2.25.8.8 0 0 1 .08.37.92.92 0 0 1-.32.69 18.2 18.2 0 0 0-2.4 2.41.87.87 0 0 1-1 .25h-.1a2.89 2.89 0 0 0-3.79 1.58l-1.51 3.69a2.89 2.89 0 0 0 1.56 3.8 1 1 0 0 1 .59 1 20 20 0 0 0 0 3.37.89.89 0 0 1-.59.9 2.91 2.91 0 0 0-1.58 1.58 2.85 2.85 0 0 0 0 2.22l1.54 3.74a2.9 2.9 0 0 0 1.57 1.58 2.92 2.92 0 0 0 2.25 0 1 1 0 0 1 1.06.24 17.53 17.53 0 0 0 2.41 2.39.9.9 0 0 1 .26 1 .27.27 0 0 0-.05.11 2.89 2.89 0 0 0 1.58 3.79l3.73 1.55a2.89 2.89 0 0 0 3.8-1.56 1 1 0 0 1 1-.59 20.07 20.07 0 0 0 3.38 0 .9.9 0 0 1 .89.59 2.91 2.91 0 0 0 1.58 1.58 2.84 2.84 0 0 0 1.1.22 2.91 2.91 0 0 0 1.12-.23l3.74-1.54a2.9 2.9 0 0 0 1.58-1.57 2.92 2.92 0 0 0 0-2.25.8.8 0 0 1-.08-.37.88.88 0 0 1 .32-.68 20 20 0 0 0 1.76-1.68c.21-.23.42-.46.62-.7l-1.56-1.37c-.17.21-.36.42-.55.62a18.36 18.36 0 0 1-1.56 1.5A2.83 2.83 0 0 0 37.65 47a2.75 2.75 0 0 0 .24 1.15.9.9 0 0 1 0 .7.9.9 0 0 1-.49.49l-3.75 1.55a.92.92 0 0 1-.69 0 1 1 0 0 1-.51-.53 2.86 2.86 0 0 0-2.9-1.79 16.29 16.29 0 0 1-3 0 2.89 2.89 0 0 0-3 1.81.86.86 0 0 1-.48.49.94.94 0 0 1-.7 0l-3.74-1.56a.86.86 0 0 1-.49-.48.88.88 0 0 1 0-.63l.06-.11a2.88 2.88 0 0 0-.81-3.32 18 18 0 0 1-2.15-2.13 2.83 2.83 0 0 0-2.24-.99 2.75 2.75 0 0 0-1.15.24.9.9 0 0 1-.7 0 .9.9 0 0 1-.49-.49l-1.59-3.76a.92.92 0 0 1 0-.69 1 1 0 0 1 .53-.51 2.87 2.87 0 0 0 1.79-2.9 16.19 16.19 0 0 1 0-2.95 2.06 2.06 0 0 0 0-.35 3 3 0 0 0-1.83-2.71.86.86 0 0 1-.49-.48.94.94 0 0 1 0-.7l1.56-3.74a.86.86 0 0 1 .48-.49.85.85 0 0 1 .64 0l.1.05a2.88 2.88 0 0 0 3.32-.81 18.77 18.77 0 0 1 2.13-2.15A2.83 2.83 0 0 0 18.35 17a2.75 2.75 0 0 0-.24-1.15.9.9 0 0 1 0-.7.9.9 0 0 1 .49-.49l3.75-1.55a.9.9 0 0 1 1.17.49 2.94 2.94 0 0 0 3 1.82 16.89 16.89 0 0 1 2.93 0 2.89 2.89 0 0 0 3-1.81.86.86 0 0 1 .48-.49.94.94 0 0 1 .7 0l3.74 1.56a.92.92 0 0 1 .5 1.17 2.94 2.94 0 0 0 .83 3.34z" fill="#000000" opacity="1" data-original="#000000"></path><path d="M28 20a12.14 12.14 0 0 1 8.8 3.7l1.43-1.4a14 14 0 1 0 0 19.4l-1.43-1.4A12.09 12.09 0 1 1 28 20zM46.43 16.64 48 15.36a26 26 0 0 0-15.81-9l-.32 2a23.88 23.88 0 0 1 14.56 8.28zM24.16 8.31l-.32-2A25.92 25.92 0 0 0 2.33 27.84l2 .32A23.9 23.9 0 0 1 24.16 8.31zM23.84 57.67l.32-2A24.05 24.05 0 0 1 4.48 36.8l-2 .4a26.09 26.09 0 0 0 21.36 20.47zM31.84 55.69l.32 2a25.83 25.83 0 0 0 16.64-10.1l-1.6-1.2a23.86 23.86 0 0 1-15.36 9.3z" fill="#000000" opacity="1" data-original="#000000"></path><path d="m61.57 31.18-16-11A1 1 0 0 0 44 21v5H30a3 3 0 0 0-3 3v6a3 3 0 0 0 3 3h14v5a1 1 0 0 0 1 1 1 1 0 0 0 .57-.18l16-11a1 1 0 0 0 0-1.64zM46 41.1V37a1 1 0 0 0-1-1H30a1 1 0 0 1-1-1v-6a1 1 0 0 1 1-1h15a1 1 0 0 0 1-1v-4.1L59.23 32zM2 31h2v2H2zM27 6h2v2h-2zM27 56h2v2h-2z" fill="#000000" opacity="1" data-original="#000000"></path></g></svg>